<?xml version="1.0" encoding="utf-8"?>
<!-- Generator: Adobe Illustrator 22.0.0, SVG Export Plug-In . SVG Version: 6.00 Build 0)  -->
<svg version="1.1" id="Слой_1" xmlns="http://www.w3.org/2000/svg" xmlns:xlink="http://www.w3.org/1999/xlink" x="0px" y="0px"
	 viewBox="0 0 1080 1080" style="enable-background:new 0 0 1080 1080;" xml:space="preserve">
<style type="text/css">
	.st0{fill:#507699;}
	.st1{display:none;}
	.st2{display:inline;fill:none;stroke:#507699;stroke-width:3;stroke-linecap:round;stroke-linejoin:round;stroke-miterlimit:10;}
	.st3{display:inline;fill:#507699;}
	.st4{font-family:'Georgia-Bold';}
	.st5{font-size:100.2717px;}
	.st6{letter-spacing:30;}
	.st7{fill:none;stroke:#507699;stroke-width:4;stroke-linecap:round;stroke-linejoin:round;stroke-miterlimit:10;}
	.st8{fill:none;stroke:#507699;stroke-width:2;stroke-miterlimit:10;}
	.st9{fill:none;stroke:#507699;stroke-width:3;stroke-linecap:round;stroke-linejoin:round;stroke-miterlimit:10;}
	.st10{fill:none;}
</style>
<g>
	<path class="st0" d="M539.5,148c53,0,104.4,10.4,152.8,30.8C739,198.5,781,226.7,817,262.7c36,36,64.3,77.8,84.1,124.4
		c20.5,48.3,30.8,99.5,30.8,152.4s-10.4,104.1-30.8,152.4c-19.8,46.6-48.1,88.5-84.1,124.4c-36,36-78,64.2-124.8,83.9
		c-48.4,20.4-99.8,30.8-152.8,30.8s-104.4-10.4-152.8-30.8C340,880.5,298,852.3,262,816.3c-36-36-64.3-77.8-84.1-124.4
		c-20.5-48.3-30.8-99.5-30.8-152.4s10.4-104.1,30.8-152.4c19.8-46.6,48.1-88.5,84.1-124.4c36-36,78-64.2,124.8-83.9
		C435.1,158.4,486.5,148,539.5,148 M539.5,144C320.5,144,143,321.1,143,539.5S320.5,935,539.5,935S936,757.9,936,539.5
		S758.5,144,539.5,144L539.5,144z"/>
</g>
<g>
	<path class="st0" d="M539.5,166c50.4,0,99.3,9.9,145.4,29.4c44.5,18.8,84.4,45.7,118.7,80c34.3,34.3,61.2,74.2,80,118.7
		c19.5,46,29.4,95,29.4,145.4s-9.9,99.3-29.4,145.4c-18.8,44.5-45.7,84.4-80,118.7s-74.2,61.2-118.7,80c-46,19.5-95,29.4-145.4,29.4
		s-99.3-9.9-145.4-29.4c-44.5-18.8-84.4-45.7-118.7-80c-34.3-34.3-61.2-74.2-80-118.7c-19.5-46-29.4-95-29.4-145.4
		s9.9-99.3,29.4-145.4c18.8-44.5,45.7-84.4,80-118.7c34.3-34.3,74.2-61.2,118.7-80C440.2,175.9,489.1,166,539.5,166 M539.5,164
		C332.1,164,164,332.1,164,539.5S332.1,915,539.5,915S915,746.9,915,539.5S746.9,164,539.5,164L539.5,164z"/>
</g>
<g>
	<path class="st0" d="M539.5,172c49.6,0,97.7,9.7,143,28.9c43.8,18.5,83.1,45,116.8,78.8c33.8,33.8,60.3,73.1,78.8,116.8
		c19.2,45.3,28.9,93.4,28.9,143s-9.7,97.7-28.9,143c-18.5,43.8-45,83.1-78.8,116.8c-33.8,33.8-73.1,60.3-116.8,78.8
		c-45.3,19.2-93.4,28.9-143,28.9s-97.7-9.7-143-28.9c-43.8-18.5-83.1-45-116.8-78.8c-33.8-33.8-60.3-73.1-78.8-116.8
		c-19.2-45.3-28.9-93.4-28.9-143s9.7-97.7,28.9-143c18.5-43.8,45-83.1,78.8-116.8c33.8-33.8,73.1-60.3,116.8-78.8
		C441.8,181.7,489.9,172,539.5,172 M539.5,169C334.9,169,169,334.9,169,539.5S334.9,910,539.5,910S910,744.1,910,539.5
		S744.1,169,539.5,169L539.5,169z"/>
</g>
<g class="st1">
	<path class="st2" d="M347.9,844.3l25.3-45.3l5.9,3.3l-22.5,40.4l21.1,11.7l22.5-40.4l5.9,3.3l-25.3,45.3L347.9,844.3z"/>
	<path class="st2" d="M327.3,796.3c-3.2,3.5-5.7,6.5-8,9.2l-4.5-4.1l4.1-4.9l-0.1-0.1c-5.1,1.5-10.2,0.5-14.7-3.6
		c-6.7-6.1-6.5-16.3,1.1-24.6c9-9.9,19.5-9.3,26-3.4c3.6,3.3,5.4,7.8,4.5,12.1l0.1,0.1l13.7-15l4.9,4.5L327.3,796.3z M329.1,784.5
		c0.7-0.7,1.2-1.5,1.6-2.3c2.3-4.3,1.4-9.4-2.2-12.7c-5.3-4.8-12.3-3.3-18.1,3c-5,5.5-6.4,12.9-1.2,17.7c3.4,3.1,8.8,3.6,13.2,0.7
		c0.7-0.5,1.6-1.1,2.2-1.7L329.1,784.5z"/>
	<path class="st2" d="M284.9,712.2l-3.5,3.2l0.1,0.2c3.6,0,8,1.7,11.1,6.1c4.4,6.1,2.3,12.4-2.1,15.5c-7.3,5.2-16,1.6-24.3-10.2
		l-0.6,0.4c-2.5,1.8-6.5,5.7-2.1,11.9c2,2.8,5,5.1,7.9,6.3l-2.7,3.8c-3.4-1.3-7.1-4.2-9.8-8c-6.6-9.3-1.9-16.1,4.2-20.4l11.3-8.1
		c2.6-1.9,5.1-3.8,6.9-5.7L284.9,712.2z M270,724.1c4.2,6.1,10.1,12.2,16,8c3.6-2.6,3.6-6.1,1.6-9c-2.8-3.9-7.1-4.7-10.3-3.7
		c-0.7,0.2-1.4,0.5-2,0.9L270,724.1z"/>
	<path class="st2" d="M230.7,692.5c-1.5-2.2-3.8-6.5-5.6-10.5c-2.5-5.7-5.9-15.5,1.7-18.9c4.2-1.9,8.3,0.2,10.8,3.7l0.1-0.1
		c-1.5-5.3-0.4-10.2,4.6-12.4c8.9-4,15.1,6.7,18.1,13.4c1.7,3.8,3.2,7.9,3.9,9.7L230.7,692.5z M241.9,680.4l-2.1-4.6
		c-2-4.6-5.5-8.7-9.5-6.9c-3.4,1.5-3.7,5.2-0.9,11.4c0.9,2,1.6,3.2,2.4,4.7L241.9,680.4z M257.6,673.4c-0.6-1.9-1.1-3.1-2-5.1
		c-1.9-4.1-5.6-9.9-10.5-7.7c-4.9,2.2-3.8,7.6-1.1,13.5l2,4.5L257.6,673.4z"/>
	<path class="st2" d="M204.1,620.4l15.4-3.3c5.8-1.2,9.4-1.9,14.7-2.7l0-0.2c-4.9-1.2-7.7-2-12.5-3.5l-21.2-7.4l-1.6-7.8l36.5-7.7
		l1.3,6.3l-15.4,3.3c-6,1.3-9.1,1.8-15,2.7l0,0.2c5.2,1.3,8.4,2.3,12.6,3.6c6.4,2.3,14.2,4.8,21.5,7.3l1.6,7.6l-36.5,7.7
		L204.1,620.4z"/>
	<path class="st2" d="M194.7,524.3l37.3,0.2l0,6.7l-32-0.1l-0.1,12.8l9.7,0c10.5,0,17.5,1.1,20.6,5.9c1.5,1.9,2.3,3.9,2.3,7.4
		l-5.3,0.7c-0.2-1.3-0.8-2.8-1.5-3.7c-2.5-3.5-7.8-3.9-16.1-3.9l-15-0.1L194.7,524.3z"/>
	<path class="st2" d="M200.7,475.3l12.4,2.6c0-1.6,0.5-4.1,0.9-6.1c1.7-8.2,6.1-16.3,15.8-14.3c3.8,0.8,6.1,2.9,7.6,5.6
		c2.5,4.7,2,11.4,0.9,16.7c-0.8,3.7-1.7,7-2.6,9.7l-36.3-7.7L200.7,475.3z M232.6,482c0.4-1.2,0.9-2.6,1.3-4.8c1-5,0.7-11.7-5.4-13
		c-6.3-1.3-9.1,5-10.1,9.9c-0.4,1.7-0.5,3.3-0.6,4.8L232.6,482z"/>
	<path class="st2" d="M220.7,408l13.7,6.1l7.2-16.2l-13.7-6.1l2.7-6.1l34.1,15.1l-2.7,6.1l-15.4-6.8l-7.2,16.2l15.4,6.8l-2.7,6.1
		L218,414.1L220.7,408z"/>
	<path class="st2" d="M256.4,342.2l10.1,7.7c0.6-1.4,1.8-3.2,3.3-5.1c4.8-6.4,12.3-10.8,19.7-5.3c3.1,2.4,4.4,5.2,4.6,8.3
		c0.3,5.3-2.6,10.6-5.6,14.6c-2.3,3-4.6,5.6-6.5,7.7l-29.6-22.4L256.4,342.2z M282.4,361.8c0.9-1,1.9-2,3.1-3.6
		c3.1-4.1,4.8-9.9,0.2-13.4c-4.8-3.6-9.5-0.4-12.6,3.6c-1.2,1.5-2.1,3-2.7,4.2L282.4,361.8z M276.6,315.4l29.7,22.5l-4,5.3
		l-29.7-22.5L276.6,315.4z"/>
	<path class="st2" d="M323.1,296.9c6,6.9,12.9,6.1,18.1,1.7c3.7-3.1,5.4-5.6,6.7-8.1l4,3c-1.1,2.4-3.5,5.9-8,9.7
		c-8.8,7.4-18.9,6-26.1-2.6c-7.2-8.6-7.8-19.7,0.5-26.6c9.3-7.8,18.7-1.7,23.1,3.6c0.9,1.1,1.5,2,1.8,2.6L323.1,296.9z M335.2,280.5
		c-2.7-3.4-8.4-7.3-14.3-2.4c-5.3,4.4-3.5,11.2-0.9,15.1L335.2,280.5z"/>
	<path class="st2" d="M410.2,219.9l5.8,15.1l1.5-0.6l7.3-20.1l7.7-3l-9.1,21.6c5.8-1.6,10.6,0.9,15.8,6.1c1.8,1.9,4.3,4.8,7,7
		l-6.6,2.5c-1.5-1.1-3.8-3.4-6-5.9c-4.5-4.7-8.8-6-14.7-3.8l-1.2,0.5l5.9,15.3l-6.3,2.4l-13.4-34.8L410.2,219.9z"/>
	<path class="st2" d="M505.2,214.3c2.2,13.6-6.3,21.1-15.2,22.5c-10,1.6-18.8-4.4-20.7-16.1c-2-12.3,4.9-20.8,15.1-22.5
		C495,196.6,503.4,203.1,505.2,214.3z M476.1,219.4c1.3,8.1,6.9,13.4,13.5,12.3c6.4-1,10.2-7.8,8.9-16.1c-1-6.2-5.4-13.6-13.3-12.4
		C477.2,204.6,474.9,212.4,476.1,219.4z"/>
	<path class="st2" d="M544,194.3l8.3,0.6l5.5,19.2c0.7,2.8,2,7.5,2.7,10.4l0.2,0c1-2.7,3.5-8.5,5.2-12.5l7.1-15.8l8.4,0.6l0.1,37.4
		l-6.5-0.4l0.4-17.8c0-4,0.1-8.8,0.2-13.3l-0.2,0c-1.2,3.3-2.4,6.2-4.9,11.8l-8.4,18.3l-4.9-0.3l-5.4-18.8
		c-0.9-3.6-2.2-9.1-2.8-12.6l-0.3,0c-0.5,4.4-1,9.3-1.5,13.3l-2.1,17.5l-6.2-0.4L544,194.3z"/>
	<path class="st2" d="M654,214l-10.8,35.7l-6.5-2l9.2-30.5l-16.6-5l-9.2,30.5l-6.4-1.9l10.8-35.7L654,214z"/>
	<path class="st2" d="M699.3,233.9l-6.1,11.1c1.5,0.5,3.8,1.7,5.6,2.6c7.4,4,13.9,10.6,9.1,19.3c-1.9,3.4-4.5,5-7.6,5.6
		c-5.2,1.1-11.5-1.4-16.3-4c-3.3-1.8-6.2-3.7-8.5-5.3l17.8-32.5L699.3,233.9z M683.7,262.5c1.1,0.8,2.3,1.6,4.2,2.7
		c4.5,2.4,11,4.1,14-1.4c3.1-5.7-2.2-10.1-6.6-12.6c-1.6-0.9-3-1.5-4.4-2L683.7,262.5z"/>
	<path class="st2" d="M758.7,273l-10.5,11.7l4.8,4.3c7.4-6.6,16.7-7.2,23.4-1.2c7.2,6.5,7,16.6-0.7,25.2c-8.1,9-18.7,9.8-25.7,3.5
		c-6.6-6-7.1-15.3-0.6-23.7l-4.6-4.2l-11,12.2l-4.9-4.4l24.9-27.7L758.7,273z M770.6,308.4c4.7-5.2,7.2-12.7,2.3-17.1
		c-4.9-4.4-12.2-1.4-17.2,4.2c-4.8,5.4-7.1,12.8-2.2,17.2C758.5,317.2,765.8,313.7,770.6,308.4z"/>
	<path class="st2" d="M828.4,350.8l-4.4,3.1l-6.8-9.5L791.3,363l-3.9-5.4l25.9-18.6l-6.8-9.5l4.4-3.1L828.4,350.8z"/>
	<path class="st2" d="M830,393.6c-8.2,4-9.2,10.9-6.3,17c2,4.4,4.1,6.7,6.1,8.5l-3.9,3.1c-2-1.7-4.8-4.9-7.3-10.3
		c-4.8-10.4-0.9-19.8,9.3-24.5c10.2-4.7,21-2.5,25.6,7.4c5.1,11-3.2,18.5-9.4,21.4c-1.3,0.6-2.3,0.9-3,1.1L830,393.6z M842.8,409.6
		c3.9-1.8,9.2-6.3,6-13.2c-2.9-6.2-9.9-6.3-14.4-4.8L842.8,409.6z"/>
	<path class="st2" d="M860.4,450.3c4.7-1.1,8.4-2.1,11.8-3l1.3,5.9l-6.2,1.7l0,0.2c5,1.7,8.6,5.4,10,11.3c2,8.8-4,17.1-15,19.6
		c-13.1,3-21.3-3.5-23.3-12.1c-1.1-4.8,0.1-9.5,3.2-12.5l0-0.2l-19.8,4.5l-1.5-6.5L860.4,450.3z M852.2,459c-1,0.2-1.8,0.6-2.6,0.9
		c-4.3,2.2-6.6,6.9-5.5,11.7c1.6,7,8.2,9.7,16.5,7.9c7.3-1.6,12.7-6.9,11.1-13.9c-1-4.5-5.2-8-10.4-8.1c-0.9,0-1.9,0-2.8,0.2
		L852.2,459z"/>
	<path class="st2" d="M884.4,530l-12.7-0.2c0.3,1.5,0.4,3.6,0.4,6.1c-0.1,8-3.5,16.1-12.7,15.9c-3.9,0-6.6-1.5-8.6-4
		c-3.4-4.1-4.2-10.1-4.1-15.1c0-3.8,0.3-7.2,0.7-10l37.1,0.4L884.4,530z M884,563.6l-37.3-0.4l0.1-6.7l37.3,0.4L884,563.6z
		 M851.9,529.6c-0.2,1.3-0.3,2.8-0.4,4.7c-0.1,5.2,2,10.8,7.8,10.9c6,0.1,7.9-5.3,8-10.4c0-1.9-0.1-3.6-0.3-5L851.9,529.6z"/>
	<path class="st2" d="M865.4,652.4l-23.5-0.2c-2.6-0.1-5.7-0.3-8-0.5l-0.1,0.1c1.8,1.4,4.2,3.2,6.4,5l17.8,14.7l-2.5,6.7l-21.2-18.9
		c-10.2-9.1-15.2-14.5-17.3-20.2c-1.6-4.1-1.5-7.6-1.2-9.3l5.9,0.4c-0.1,1.8,0.1,4.2,1,6.7c0.7,2.2,2.3,5.3,5,8
		c0.5,0.5,1,0.9,1.3,1.1c0.4,0.1,0.9,0.2,1.8,0.2l37-0.7L865.4,652.4z"/>
	<path class="st2" d="M809.2,754.7l-11.5-9.7l-11.4,13.6l11.5,9.7l-4.3,5.1l-28.5-24l4.3-5.1l12.9,10.9l11.4-13.6l-12.9-10.9
		l4.3-5.1l28.5,24L809.2,754.7z"/>
	<path class="st2" d="M723.1,786.4l3.3,3.4l0.2-0.1c-0.2-3.6,1.4-8.1,5.6-11.4c5.9-4.6,12.3-2.8,15.6,1.4c5.5,7.1,2.3,15.9-9.1,24.7
		l0.5,0.6c1.9,2.4,6,6.3,12,1.6c2.7-2.1,4.9-5.2,5.9-8.2l4,2.6c-1.2,3.5-3.9,7.3-7.6,10.1c-9,7-16,2.6-20.6-3.3l-8.6-11
		c-2-2.5-4.1-4.9-6-6.7L723.1,786.4z M735.6,800.8c5.9-4.4,11.7-10.6,7.3-16.3c-2.7-3.5-6.3-3.3-9-1.2c-3.8,3-4.4,7.3-3.3,10.5
		c0.2,0.7,0.6,1.4,1,1.9L735.6,800.8z"/>
	<path class="st2" d="M666,821.8c1.2-1.6,4.1-4.5,8.6-6.8c10-5.1,20-1.6,25.2,8.5c5.2,10.2,2,21.2-8.9,26.7
		c-3.6,1.8-7.2,2.5-9.2,2.5l-1-5.4c1.9,0.1,4.5-0.3,7.8-2c7.6-3.9,8.9-11.6,5.3-18.5c-3.9-7.7-11.3-9.9-17.8-6.6
		c-3.4,1.7-5.2,3.8-6.6,5.4L666,821.8z"/>
</g>
<g>
	<path class="st0" d="M539.5,259c37.9,0,74.6,7.4,109.2,22c33.4,14.1,63.4,34.4,89.2,60.1c25.8,25.8,46,55.8,60.1,89.2
		c14.6,34.6,22,71.3,22,109.2c0,37.9-7.4,74.6-22,109.2c-14.1,33.4-34.4,63.4-60.1,89.2c-25.8,25.8-55.8,46-89.2,60.1
		c-34.6,14.6-71.3,22-109.2,22c-37.9,0-74.6-7.4-109.2-22c-33.4-14.1-63.4-34.4-89.2-60.1c-25.8-25.8-46-55.8-60.1-89.2
		c-14.6-34.6-22-71.3-22-109.2c0-37.9,7.4-74.6,22-109.2c14.1-33.4,34.4-63.4,60.1-89.2c25.8-25.8,55.8-46,89.2-60.1
		C464.9,266.4,501.6,259,539.5,259 M539.5,256C382.9,256,256,382.9,256,539.5S382.9,823,539.5,823S823,696.1,823,539.5
		S696.1,256,539.5,256L539.5,256z"/>
</g>
<text transform="matrix(1 0 0 1 343.1504 498.9277)" class="st1"><tspan x="0" y="0" class="st3 st4 st5 st6">Пром</tspan><tspan x="91.1" y="119.8" class="st3 st4 st5 st6">ПК</tspan></text>
<g>
	<path class="st7" d="M430.1,498.9h-37.3v-3.8c0.8-0.1,2-0.2,3.4-0.3c1.5-0.1,2.5-0.3,3.1-0.6c1.2-0.5,2-1.1,2.5-1.9
		c0.5-0.8,0.7-1.8,0.7-3.1v-54.6h-28.4v54.1c0,1.1,0.2,2.1,0.7,3c0.5,0.9,1.3,1.6,2.4,2.1c0.6,0.3,1.6,0.5,3,0.8
		c1.4,0.3,2.6,0.5,3.5,0.5v3.8h-37.3v-3.8c0.8,0,2-0.1,3.6-0.3c1.6-0.2,2.7-0.4,3.5-0.7c1.2-0.4,2-1.1,2.4-1.9
		c0.5-0.9,0.7-1.9,0.7-3.1V440c0-1.1-0.2-2.1-0.6-2.9c-0.4-0.8-1.2-1.5-2.5-2.1c-0.9-0.4-2.2-0.8-3.7-1.2c-1.5-0.3-2.6-0.5-3.3-0.6
		v-3.8h83.5v3.8c-1,0.1-2.2,0.2-3.5,0.4c-1.3,0.2-2.5,0.5-3.5,0.8c-1.2,0.4-2.1,1.1-2.5,2c-0.4,0.9-0.6,1.9-0.6,3v49.2
		c0,1.2,0.2,2.2,0.6,3c0.4,0.8,1.3,1.5,2.5,2.1c0.8,0.3,1.9,0.6,3.4,0.9c1.5,0.3,2.7,0.4,3.6,0.5V498.9z"/>
	<path class="st7" d="M526,475.1c0,6.9-2.3,12.8-6.9,17.7c-4.6,4.9-10.4,7.4-17.5,7.4c-3.1,0-5.7-0.3-7.6-1c-2-0.6-3.6-1.4-4.8-2.3
		h-0.4v13.8c0,1.1,0.3,2.1,0.8,3c0.5,0.8,1.2,1.5,2.1,1.9c0.9,0.4,2.1,0.7,3.7,1c1.6,0.3,3,0.5,4,0.5v3.6h-35.4V517
		c0.8-0.1,1.8-0.2,3.1-0.4c1.2-0.2,2.2-0.4,2.8-0.6c1-0.4,1.8-1,2.1-1.8c0.4-0.9,0.6-1.9,0.6-3v-50.1c-0.1-1.1-0.4-2-0.8-2.8
		c-0.4-0.8-1.1-1.5-1.9-2.2c-0.7-0.4-1.5-0.8-2.6-1.1c-1.1-0.3-2.1-0.5-3.2-0.6V451l23.9-1.3l0.7,0.6v5.4l0.4,0.1
		c2.2-2.2,4.5-3.9,7.2-5.1c2.6-1.2,5.2-1.8,7.8-1.8c6.7,0,12.1,2.4,16,7.2C524,461,526,467.3,526,475.1z M508.4,475.3
		c0-2.4-0.2-4.8-0.5-7c-0.4-2.2-1-4.2-1.9-6c-0.9-1.8-2-3.2-3.5-4.2c-1.4-1-3.2-1.6-5.3-1.6c-2.1,0-3.8,0.4-5.1,1.1
		c-1.3,0.7-2.4,1.7-3.3,2.9v27.8c0.2,0.7,0.6,1.5,1.1,2.5c0.6,1,1.1,1.9,1.7,2.5c0.8,0.9,1.7,1.5,2.8,2c1,0.4,2.2,0.6,3.4,0.6
		c3.2,0,5.8-1.7,7.7-5.2C507.4,487.1,508.4,482,508.4,475.3z"/>
	<path class="st7" d="M612.4,456.1c2.4,2.3,4.3,4.9,5.5,8.1c1.3,3.1,1.9,6.5,1.9,10.2c0,3.6-0.6,7-1.9,10.3c-1.3,3.2-3.1,6-5.5,8.3
		c-2.6,2.4-5.7,4.3-9.2,5.6s-7.7,2-12.3,2c-4,0-7.6-0.6-11-1.7c-3.3-1.1-6.3-2.9-8.9-5.1c-2.5-2.2-4.4-4.9-5.9-8.1
		c-1.4-3.2-2.2-6.8-2.2-10.8c0-3.9,0.6-7.4,1.9-10.5c1.3-3.1,3.1-5.8,5.7-8.2c2.4-2.3,5.4-4.1,8.9-5.3c3.5-1.3,7.5-1.9,11.9-1.9
		c4.6,0,8.6,0.6,12.1,1.9C606.9,452.1,609.9,453.9,612.4,456.1z M599.8,490.1c0.7-1.8,1.2-4,1.6-6.7c0.3-2.6,0.5-5.6,0.5-9.1
		c0-2.3-0.2-4.9-0.5-7.8s-0.8-5.3-1.5-7c-0.8-2.1-1.9-3.7-3.3-4.8c-1.4-1.2-3.1-1.8-5.3-1.8c-2.3,0-4.2,0.6-5.6,1.9
		c-1.4,1.3-2.5,2.9-3.2,4.9c-0.7,1.9-1.2,4-1.4,6.5c-0.3,2.5-0.4,5.1-0.4,7.8c0,3.6,0.1,6.5,0.3,8.8c0.2,2.3,0.8,4.7,1.7,7
		c0.8,2,1.8,3.6,3.2,4.8c1.4,1.2,3.2,1.8,5.3,1.8c2,0,3.6-0.5,5-1.6C597.9,493.8,599,492.2,599.8,490.1z"/>
	<path class="st7" d="M730.8,498.9h-30.6v-3.6c0.8-0.1,1.6-0.2,2.5-0.3c0.8-0.1,1.5-0.3,2.1-0.5c1-0.4,1.8-0.9,2.2-1.7
		c0.4-0.8,0.6-1.8,0.6-3v-32.6h-1.4l-14.9,40.8h-6.7l-14.3-40.8h-1.5v31.1c0,1.6,0.2,2.9,0.7,3.9c0.4,0.9,1.1,1.6,2,2
		c0.7,0.3,1.4,0.6,2.3,0.7c0.8,0.2,1.6,0.3,2.5,0.3v3.6h-19.6v-3.6c0.8-0.1,1.5-0.1,2.3-0.2c0.8-0.1,1.5-0.2,2.1-0.4
		c1-0.3,1.7-1,2.1-1.9c0.4-1,0.6-2.3,0.6-3.9v-28.9c0-1.3-0.2-2.3-0.7-3.1c-0.5-0.8-1.1-1.4-2.1-1.8c-0.9-0.4-1.7-0.6-2.5-0.8
		c-0.8-0.1-1.5-0.2-2.2-0.3v-3.6h27.9l9.7,28.6l8-22.4c0.4-1.2,0.8-2.5,1.1-3.7c0.3-1.3,0.4-2.1,0.5-2.5h27.4v3.6
		c-1,0.1-1.8,0.1-2.4,0.2c-0.7,0.1-1.4,0.3-2.2,0.5c-0.9,0.3-1.6,0.8-2.1,1.6c-0.4,0.8-0.7,1.8-0.7,3V490c0,1.2,0.2,2.2,0.6,3
		c0.4,0.8,1.1,1.3,2.1,1.6c0.8,0.2,1.5,0.4,2.1,0.5c0.6,0.1,1.4,0.2,2.5,0.2V498.9z"/>
	<path class="st7" d="M521.1,618.7h-37.3v-3.8c0.8-0.1,2-0.2,3.4-0.3c1.5-0.1,2.5-0.3,3.1-0.6c1.2-0.5,2-1.1,2.5-1.9
		s0.7-1.8,0.7-3.1v-54.6h-28.4v54.1c0,1.1,0.2,2.1,0.7,3c0.5,0.9,1.3,1.6,2.4,2.1c0.6,0.3,1.6,0.5,3,0.8c1.4,0.3,2.6,0.5,3.5,0.5
		v3.8h-37.3v-3.8c0.8,0,2-0.1,3.6-0.3c1.6-0.2,2.7-0.4,3.5-0.7c1.2-0.4,2-1.1,2.4-1.9c0.5-0.9,0.7-1.9,0.7-3.1v-49.2
		c0-1.1-0.2-2.1-0.6-2.9c-0.4-0.8-1.2-1.5-2.5-2.1c-0.9-0.4-2.2-0.8-3.7-1.2c-1.5-0.3-2.6-0.5-3.3-0.6v-3.8h83.5v3.8
		c-1,0.1-2.2,0.2-3.5,0.4c-1.3,0.2-2.5,0.5-3.5,0.8c-1.2,0.4-2.1,1.1-2.5,2c-0.4,0.9-0.6,1.9-0.6,3v49.2c0,1.2,0.2,2.2,0.6,3
		c0.4,0.8,1.3,1.5,2.5,2.1c0.8,0.3,1.9,0.6,3.4,0.9c1.5,0.3,2.7,0.4,3.6,0.5V618.7z"/>
	<path class="st7" d="M635.9,618.7h-26.7c-1.1-3.4-2.3-6.7-3.4-10.1c-1.1-3.4-2.3-6.5-3.6-9.4c-0.9-2.1-1.8-3.9-2.7-5.4
		c-0.9-1.5-2-2.7-3.3-3.8c-1.2-1-2.7-1.8-4.5-2.3c-1.7-0.5-3.8-0.8-6.2-0.8v21.5c0,1.1,0.2,2.1,0.7,3c0.5,0.9,1.3,1.6,2.4,2.1
		c0.6,0.3,1.7,0.5,3.2,0.8s2.7,0.5,3.7,0.5v3.8H558v-3.8c0.8,0,2-0.1,3.6-0.3s2.7-0.4,3.5-0.7c1.2-0.4,2-1.1,2.4-1.9
		c0.5-0.9,0.7-1.9,0.7-3.1v-49.2c0-1.1-0.2-2.1-0.6-2.9c-0.4-0.8-1.2-1.5-2.5-2.1c-0.9-0.4-2.2-0.8-3.7-1.2
		c-1.5-0.3-2.6-0.5-3.3-0.6v-3.8h37.6v3.8c-1,0.1-2.2,0.2-3.6,0.5c-1.4,0.3-2.5,0.5-3.2,0.7c-1.3,0.4-2.1,1.1-2.5,2
		c-0.4,0.9-0.6,1.9-0.6,3v23.1h3.2c1.3,0,2.7-0.2,4.1-0.6s2.7-1.1,3.9-2.3c2.4-2.3,4.1-4.7,5.3-7c1.2-2.4,2.2-4.8,3-7.3
		c1-2.7,1.9-5.1,2.6-7c0.8-1.9,2.3-4,4.6-6.2c1.1-1.1,2.5-2,4.2-2.7c1.7-0.7,3.5-1,5.5-1c3.3,0,5.8,0.8,7.7,2.5
		c1.9,1.7,2.8,3.8,2.8,6.4c0,2.8-0.8,5.1-2.4,6.6c-1.6,1.6-3.6,2.4-6.1,2.4c-1.6,0-3.1-0.5-4.6-1.4c-1.5-0.9-3.3-2.7-5.3-5.3
		c-1,1-1.8,2.6-2.6,4.7s-1.4,3.9-2,5.5c-1.3,3.2-2.5,5.7-3.7,7.4c-1.2,1.7-2.6,3.1-4.2,4.2v0.9c4.6,1.2,8.4,3.2,11.4,6
		c3,2.8,5.4,6.2,7.3,10.1c0.8,1.7,1.7,3.6,2.5,5.5c0.9,1.9,1.6,3.6,2.3,5c1,2.1,2,3.5,3,4.2c1,0.7,1.8,1.1,2.4,1.2
		c0.8,0.2,1.7,0.3,2.8,0.5c1.1,0.1,2,0.3,2.7,0.3V618.7z"/>
</g>
<polygon class="st8" points="543,291.9 555,290.8 544.6,296.9 549.3,307.9 540.3,300 531.3,307.8 536.1,296.9 525.8,290.7 
	537.8,291.9 540.4,280.2 "/>
<polygon class="st8" points="496.9,295.8 508.4,292.5 499.4,300.4 506.2,310.3 495.8,304.3 488.5,313.8 491,302.1 479.7,298 
	491.7,296.8 492,284.8 "/>
<polygon class="st8" points="590.4,297.2 602.3,298.6 591,302.5 593.4,314.2 586.2,304.6 575.7,310.6 582.6,300.7 573.8,292.6 
	585.2,296.2 590.2,285.2 "/>
<polygon class="st8" points="537.4,770.1 525.5,771.2 535.8,765.1 531.1,754.1 540.1,762 549.1,754.1 544.3,765.1 554.6,771.3 
	542.7,770.1 540,781.8 "/>
<polygon class="st8" points="583.6,766.1 572.1,769.5 581,761.5 574.2,751.6 584.6,757.6 591.9,748.1 589.4,759.9 600.7,763.9 
	588.7,765.1 588.4,777.1 "/>
<polygon class="st8" points="490,764.9 478.1,763.6 489.4,759.6 487,747.9 494.2,757.5 504.6,751.5 497.8,761.3 506.7,769.4 
	495.2,765.9 490.2,776.9 "/>
<g>
	<path class="st9" d="M395.2,813.4l20.4,8.6l-1,2.5c-0.6-0.2-1.4-0.5-2.5-0.8c-1.1-0.3-1.9-0.5-2.3-0.5c-0.8,0-1.5,0.2-2.1,0.6
		c-0.6,0.4-1,1.1-1.4,2l-16.6,39.5l22.6,9.5l16.5-39.2c0.3-0.8,0.5-1.5,0.5-2.2c0-0.7-0.4-1.4-1-2.1c-0.3-0.4-0.9-0.9-1.8-1.5
		c-0.9-0.6-1.7-1.1-2.2-1.3l1-2.5l20.4,8.6l-1,2.5c-0.6-0.2-1.4-0.5-2.5-0.8c-1.1-0.4-1.9-0.5-2.3-0.5c-0.8,0-1.5,0.2-2.1,0.6
		c-0.6,0.4-1,1.1-1.4,2l-14.9,35.5c-0.3,0.7-0.4,1.5-0.4,2.2c0,0.7,0.4,1.4,1,2.1c0.5,0.6,1.1,1.1,1.9,1.8c0.8,0.6,1.5,1.1,2.1,1.4
		l-1,2.5l-50.4-21.2l1-2.5c0.7,0.2,1.5,0.5,2.5,0.7c1,0.2,1.8,0.3,2.3,0.4c0.9,0.1,1.6-0.2,2.2-0.7c0.5-0.5,1-1.2,1.3-1.9l14.9-35.5
		c0.3-0.8,0.5-1.5,0.5-2.2c0-0.7-0.4-1.4-1-2.1c-0.3-0.4-0.9-0.9-1.8-1.5c-0.9-0.6-1.7-1.1-2.2-1.3L395.2,813.4z"/>
	<path class="st9" d="M322,802.4c-0.1-2.3,0.2-4.6,1-6.9c0.8-2.3,2-4.7,3.9-7.1c1.8-2.3,3.8-4.2,6-5.5c2.2-1.3,4.5-2.2,6.8-2.6
		c2.4-0.4,4.7-0.3,6.9,0.2c2.2,0.5,4.2,1.5,6,2.9c1.8,1.4,3.1,2.7,3.9,3.9c0.8,1.3,1.4,2.4,1.7,3.5l0.2,0.2l6.8-8.9
		c0.5-0.7,0.9-1.4,1-2.1c0.1-0.7-0.1-1.4-0.5-2c-0.3-0.5-0.9-1.2-1.6-2.1c-0.8-0.8-1.4-1.5-2-2l1.5-2l16.5,12.6l-1.5,2
		c-0.6-0.4-1.3-0.8-1.9-1.2c-0.6-0.4-1.2-0.7-1.8-0.9c-0.8-0.3-1.4-0.2-2.1,0.1s-1.2,0.8-1.7,1.5l-23.9,31.4
		c-0.5,0.6-0.7,1.3-0.9,2.1c-0.1,0.8-0.1,1.5,0.1,2.2c0.2,0.5,0.5,1.1,1.1,1.7c0.5,0.6,1.1,1.2,1.7,1.7l-1.5,2l-10.5-7l-0.1-0.7
		l2.5-3.3l-0.2-0.2c-1.9,0.4-4,0.4-6.1,0c-2.1-0.4-4-1.1-5.5-2.3c-1.8-1.4-3.2-3.1-4.1-5C322.7,806.6,322.1,804.5,322,802.4z
		 M343.1,784.9c-1.7,0.6-3.4,1.6-5,3c-1.6,1.3-3.2,3-4.7,5c-1.1,1.5-2.1,3.1-3,4.9c-0.9,1.8-1.4,3.5-1.6,5.1c-0.2,1.7,0,3.3,0.5,4.8
		c0.5,1.6,1.6,2.9,3.1,4.1c1.5,1.1,3,1.8,4.5,1.9c1.5,0.1,3,0.1,4.5-0.3l13.3-17.4c0.2-0.7,0.4-1.5,0.4-2.3c0-0.9,0-1.7-0.2-2.5
		c-0.2-1-0.6-1.9-1.1-2.7c-0.5-0.9-1.2-1.7-2.3-2.5c-1.1-0.9-2.4-1.4-3.9-1.6C346.1,784.2,344.6,784.4,343.1,784.9z"/>
	<path class="st9" d="M293.5,726.7c1.1,0.6,2,1.2,2.8,1.7c0.8,0.5,1.5,1.2,2.3,2c1.3,1.5,1.9,3,2,4.5c0.1,1.5-0.5,2.9-1.6,4.3
		l0.1,0.2c2.4,0.1,4.6,0.5,6.5,1.3c1.9,0.8,3.8,2.2,5.5,4.2c1.8,2.1,2.6,4.4,2.5,6.9c-0.1,2.5-1.3,4.6-3.3,6.4
		c-1.1,0.9-2.2,1.6-3.3,2c-1.1,0.4-2.3,0.6-3.5,0.6c-1,0-2-0.2-3.1-0.6c-1.1-0.4-2.1-0.8-3-1.3c-1.1-0.6-3.1-1.8-6.3-3.7
		c-3.1-1.9-5.3-3.1-6.6-3.6l-2.8,2.4c-0.2,0.2-0.7,0.7-1.3,1.4c-0.6,0.7-1.1,1.5-1.4,2.4c-0.4,1-0.5,2-0.5,3.2
		c0.1,1.1,0.6,2.4,1.7,3.6c0.7,0.9,1.6,1.6,2.5,2.1c0.9,0.5,1.7,0.8,2.3,0.8c0.4-0.3,0.9-0.9,1.5-1.7c0.6-0.8,1.2-1.5,1.8-2
		c0.7-0.6,1.5-0.8,2.6-0.7c1.1,0.1,2.1,0.7,3,1.8c0.8,1,1.1,1.9,0.8,3c-0.3,1-0.9,1.9-1.7,2.6c-0.9,0.7-2,1.2-3.3,1.2
		c-1.3,0.1-2.7-0.1-4.2-0.6c-1.3-0.4-2.6-1.1-4-2c-1.4-0.9-2.6-1.9-3.6-3.1c-1.4-1.6-2.4-3.1-3.2-4.5c-0.8-1.4-1.2-2.9-1.4-4.5
		c-0.1-1.6,0.2-3.1,1-4.7c0.8-1.5,2.1-3.1,4-4.7c2.7-2.3,5.2-4.4,7.3-6.1c2.2-1.7,4.5-3.7,7-5.8c0.7-0.6,1.2-1.3,1.4-1.9
		c0.2-0.6,0.3-1.3,0.1-2.1c-0.1-0.4-0.4-1-0.9-1.6c-0.5-0.6-1-1.3-1.6-1.9L293.5,726.7z M286.9,749.5c1.9,1.2,3.5,2.2,5,3.1
		c1.5,0.8,3,1.5,4.6,1.9c1.5,0.4,2.9,0.5,4.2,0.3s2.7-0.8,3.9-1.9c1.6-1.4,2.4-2.8,2.4-4.2c0-1.5-0.5-2.8-1.6-4.1
		c-1.2-1.4-2.5-2.3-4-2.7c-1.5-0.5-3.1-0.7-4.6-0.6L286.9,749.5z"/>
	<path class="st9" d="M252.7,678.1c1.6-0.9,3.2-1.3,4.8-1.2c1.6,0.1,3.1,0.6,4.5,1.4c1.3,0.8,2.6,1.8,3.7,3.1
		c1.2,1.3,2.2,2.8,3.1,4.5l9.4,17.2l-2.2,1.2c-0.3-0.5-0.7-1-1-1.5c-0.3-0.5-0.7-0.9-1-1.3c-0.5-0.5-1.1-0.8-1.8-0.8
		c-0.7,0-1.4,0.2-2.2,0.6L249,713c-0.7,0.4-1.3,0.9-1.6,1.5c-0.3,0.6-0.5,1.2-0.4,2c0,0.7,0.2,1.4,0.4,2c0.2,0.6,0.4,1.1,0.6,1.6
		l-2.2,1.2c-1.1-2-2.4-4.4-4-7.3c-1.6-2.9-3.3-5.9-5-9c-0.9-1.7-1.7-3.3-2.2-4.9c-0.6-1.6-0.9-3.1-0.9-4.5c-0.1-1.5,0.2-2.8,0.8-4
		s1.6-2.1,3-2.9c2.2-1.2,4.3-1.5,6.3-0.8c2,0.7,3.8,2,5.5,3.9l0.4-0.2c-0.5-1.2-0.8-2.4-1.1-3.7c-0.2-1.3-0.3-2.5-0.1-3.7
		c0.2-1.2,0.6-2.4,1.2-3.4C250.3,679.7,251.3,678.8,252.7,678.1z M241.4,695.1c-1.1,0.6-1.9,1.3-2.4,2.1c-0.5,0.8-0.7,1.6-0.7,2.5
		c0,0.9,0.1,1.8,0.4,2.7c0.3,0.9,0.7,1.8,1.2,2.7c0.3,0.6,0.7,1.2,1.1,1.9c0.4,0.7,0.8,1.3,1.1,1.8l11.9-6.5l-1.7-3.2
		c-0.8-1.5-1.7-2.7-2.6-3.5c-0.9-0.8-1.8-1.4-2.7-1.6c-0.9-0.2-1.8-0.3-2.7,0S242.4,694.6,241.4,695.1z M255.8,684.9
		c-1.9,1.1-3.1,2.6-3.4,4.7c-0.3,2,0.2,4.4,1.7,7.1c0.6,1.2,1.2,2.1,1.6,2.7c0.4,0.6,0.7,1.2,0.9,1.5l10.7-5.9
		c0.9-0.5,1.3-1.2,1.4-2.2c0.1-1-0.3-2.2-1.1-3.7c-0.9-1.6-1.8-2.8-2.8-3.7c-1-0.9-2.1-1.4-3.1-1.6c-1-0.2-2-0.2-3,0
		C257.7,684,256.7,684.4,255.8,684.9z"/>
	<path class="st9" d="M238.5,605.5l5,17.3l-2.4,0.7c-0.2-0.5-0.4-1.1-0.6-1.7s-0.5-1.1-0.7-1.5c-0.4-0.6-0.9-1-1.6-1.2
		c-0.6-0.2-1.4-0.2-2.3,0.1l-18.7,5.4l22.5,11.3l0.6-0.2c0.8-0.2,1.4-0.6,1.9-1.1c0.4-0.5,0.7-1.1,0.8-1.9c0.1-0.6,0.1-1.2,0.1-1.8
		c0-0.6-0.1-1.3-0.3-1.9l2.4-0.7l5,17.3l-2.4,0.7c-0.2-0.5-0.4-1.1-0.6-1.7c-0.2-0.6-0.5-1.1-0.7-1.5c-0.4-0.6-0.9-1-1.6-1.2
		c-0.6-0.2-1.4-0.1-2.3,0.1l-23.1,6.6c-0.8,0.2-1.4,0.6-1.9,1.1c-0.4,0.5-0.7,1.1-0.8,1.9c-0.1,0.7-0.1,1.4-0.1,2
		c0.1,0.6,0.2,1.2,0.3,1.7l-2.4,0.7l-5-17.3l2.4-0.7c0.2,0.7,0.5,1.3,0.7,1.8c0.2,0.5,0.4,0.9,0.7,1.4c0.4,0.6,0.9,1,1.6,1.2
		c0.7,0.2,1.4,0.1,2.3-0.1l18.4-5.3L213,625.7c-1.1,0.3-1.8,0.7-2.2,1.2c-0.4,0.5-0.7,1.1-0.8,1.9c-0.1,0.7-0.1,1.4,0,2
		c0.1,0.6,0.2,1.2,0.3,1.7l-2.4,0.7l-5-17.3l2.4-0.7c0.2,0.7,0.5,1.3,0.7,1.8c0.2,0.5,0.4,0.9,0.7,1.4c0.4,0.6,0.9,1,1.6,1.2
		c0.7,0.2,1.4,0.1,2.3-0.1l23.1-6.6c0.8-0.2,1.5-0.6,1.9-1c0.4-0.4,0.7-1,0.8-1.8c0.1-0.6,0.1-1.2,0.1-1.8c0-0.6-0.1-1.3-0.3-1.9
		L238.5,605.5z"/>
	<path class="st9" d="M231.7,536.8l0.9,18.1l-2.5,0.1c-0.1-0.6-0.2-1.2-0.2-1.8c-0.1-0.6-0.2-1.1-0.4-1.6c-0.3-0.7-0.7-1.2-1.3-1.6
		s-1.3-0.5-2.2-0.5l-27.6,1.4l0.5,10.3c6.1-0.3,11.4-0.2,15.8,0.5c4.5,0.6,8.1,1.5,10.9,2.8c2.8,1.2,4.9,2.6,6.4,4.2
		c1.4,1.6,2.2,3.3,2.3,5c0.1,1.8-0.3,3.2-1.2,4.2c-0.9,1-2,1.5-3.2,1.6c-0.9,0-1.8-0.2-2.6-0.8s-1.3-1.4-1.3-2.5
		c-0.1-1.1,0.2-2,0.8-2.9c0.6-0.9,1.4-1.7,2.4-2.6c-0.6-0.6-1.6-1.2-3.2-2c-1.5-0.7-3.4-1.4-5.7-2c-2.4-0.6-4.9-1.1-7.5-1.5
		c-2.6-0.3-5.5-0.4-8.8-0.3c-1.3,0.1-2.3,0.3-2.9,0.6c-0.6,0.4-1.1,0.9-1.4,1.6c-0.2,0.5-0.4,1.3-0.6,2.4c-0.2,1.1-0.3,2-0.3,2.7
		l-2.5,0.1l-1.7-33.7l2.5-0.1c0.1,0.7,0.2,1.4,0.3,1.9c0.1,0.5,0.2,1,0.3,1.5c0.2,0.7,0.7,1.2,1.3,1.5c0.6,0.3,1.3,0.4,2.2,0.4
		l24-1.2c0.9,0,1.6-0.2,2.1-0.6c0.5-0.3,0.9-0.9,1.2-1.6c0.2-0.5,0.4-1.1,0.5-1.7c0.1-0.6,0.1-1.3,0.2-1.9L231.7,536.8z"/>
	<path class="st9" d="M227.9,472c2,0.3,3.6,1,4.9,2.1c1.3,1.1,2.3,2.4,3,3.8c0.7,1.5,1.1,3.1,1.3,4.8c0.2,1.7,0.1,3.4-0.2,5.2
		l-3.1,19.3l-2.5-0.4c0-0.6,0.1-1.2,0.1-1.8c0-0.6,0-1.2,0-1.6c-0.1-0.7-0.4-1.3-0.9-1.7c-0.5-0.4-1.2-0.7-2.1-0.9l-23.7-3.9
		c-0.8-0.1-1.5-0.1-2.1,0.2c-0.6,0.3-1.1,0.7-1.5,1.3c-0.4,0.6-0.7,1.2-0.9,1.8c-0.2,0.6-0.4,1.1-0.5,1.7l-2.4-0.4l3-18.4l2.4,0.4
		c-0.1,0.8-0.1,1.5-0.2,2.2c-0.1,0.7-0.1,1.3,0,1.8c0.1,0.8,0.4,1.4,1,1.8c0.6,0.4,1.2,0.7,2,0.8l8.7,1.4c0.1-1,0.2-1.8,0.3-2.6
		c0.1-0.7,0.2-1.7,0.4-3.1c0.4-2.4,0.9-4.5,1.6-6.2c0.7-1.8,1.5-3.2,2.5-4.4c1.1-1.3,2.3-2.2,3.8-2.8
		C224.2,471.8,225.9,471.7,227.9,472z M226.5,479.4c-2.1-0.3-4,0.1-5.7,1.4c-1.7,1.3-2.8,3.4-3.3,6.2c-0.2,1.2-0.3,2.2-0.4,3
		c0,0.8-0.1,1.4-0.2,1.8l13.1,2.1c1,0.2,1.9-0.1,2.5-0.8c0.6-0.7,1.1-2,1.4-4c0.3-1.7,0.2-3.1-0.1-4.3c-0.4-1.2-0.9-2.2-1.7-2.9
		c-0.8-0.8-1.7-1.4-2.6-1.8C228.6,479.9,227.6,479.6,226.5,479.4z"/>
	<path class="st9" d="M261.8,407.5l-6.7,16.8l-2.3-0.9c0.2-0.6,0.3-1.1,0.5-1.7c0.2-0.6,0.3-1.1,0.3-1.6c0-0.7-0.1-1.4-0.5-1.9
		c-0.4-0.6-1-1-1.8-1.3l-11-4.4l-6.1,15.3l10.6,4.2c0.8,0.3,1.5,0.4,2.2,0.3c0.6-0.1,1.2-0.5,1.8-1c0.4-0.4,0.8-0.9,1.2-1.4
		c0.3-0.5,0.7-1.1,0.9-1.7l2.3,0.9l-6.7,16.8l-2.3-0.9c0.2-0.6,0.3-1.1,0.5-1.7c0.2-0.6,0.3-1.1,0.3-1.6c0-0.7-0.1-1.4-0.5-1.9
		c-0.4-0.5-1-0.9-1.9-1.3l-22.4-8.9c-0.8-0.3-1.5-0.4-2.1-0.3c-0.7,0.1-1.2,0.4-1.8,1c-0.5,0.5-0.9,1-1.3,1.5
		c-0.3,0.5-0.6,1-0.8,1.5l-2.3-0.9l6.7-16.8l2.3,0.9c-0.2,0.7-0.4,1.3-0.5,1.8c-0.1,0.5-0.2,1-0.3,1.5c-0.1,0.7,0.1,1.4,0.5,1.9
		c0.4,0.5,1,1,1.9,1.3l8.9,3.5l6.1-15.3l-8.5-3.4c-0.8-0.3-1.5-0.4-2.1-0.3c-0.7,0.1-1.2,0.4-1.8,1c-0.5,0.5-0.9,1-1.3,1.5
		c-0.3,0.5-0.6,1-0.8,1.5l-2.3-0.9l6.7-16.8l2.3,0.9c-0.2,0.7-0.4,1.3-0.5,1.8c-0.1,0.5-0.2,1-0.3,1.5c-0.1,0.7,0.1,1.4,0.5,1.9
		c0.4,0.5,1,1,1.9,1.3l22.4,8.9c0.8,0.3,1.5,0.4,2.1,0.4c0.6-0.1,1.2-0.4,1.7-1c0.4-0.4,0.8-0.9,1.2-1.4c0.3-0.5,0.7-1.1,0.9-1.7
		L261.8,407.5z"/>
	<path class="st9" d="M286.3,346.9c1.6,1.2,2.7,2.5,3.4,4.1c0.7,1.5,1,3.1,0.9,4.8c-0.1,1.6-0.4,3.2-1,4.8c-0.6,1.6-1.4,3.1-2.5,4.6
		L275.6,381l-2-1.5c0.3-0.5,0.6-1,0.9-1.5c0.3-0.5,0.6-1,0.7-1.5c0.2-0.7,0.2-1.4,0-2c-0.3-0.6-0.7-1.2-1.5-1.7l-19.5-14.2
		c-0.7-0.5-1.3-0.8-2-0.8c-0.7,0-1.3,0.1-2,0.5c-0.6,0.3-1.2,0.7-1.6,1.2c-0.4,0.4-0.8,0.9-1.2,1.2l-2-1.5l11-15.1l2,1.5
		c-0.4,0.6-0.8,1.3-1.2,1.9c-0.4,0.6-0.6,1.2-0.8,1.6c-0.3,0.8-0.2,1.4,0.1,2.1c0.3,0.6,0.8,1.1,1.4,1.6l7.1,5.2
		c0.6-0.8,1.1-1.5,1.4-2.1c0.4-0.6,1-1.4,1.8-2.5c1.4-2,2.8-3.6,4.2-4.8c1.4-1.3,2.8-2.2,4.3-2.8c1.5-0.7,3.1-0.9,4.6-0.8
		C283.1,345,284.7,345.7,286.3,346.9z M281.7,352.9c-1.7-1.2-3.6-1.7-5.7-1.3c-2.1,0.4-4,1.7-5.7,4.1c-0.7,1-1.3,1.8-1.7,2.5
		s-0.7,1.2-1,1.6l10.7,7.8c0.9,0.6,1.7,0.8,2.6,0.5c0.9-0.3,1.9-1.3,3.1-2.9c1-1.4,1.6-2.7,1.8-3.9c0.2-1.2,0.2-2.4-0.2-3.4
		c-0.4-1.1-0.9-2-1.6-2.8C283.4,354.3,282.6,353.6,281.7,352.9z M306.7,338.2l-10.6,14.6l-2-1.5c0.3-0.5,0.6-1,0.9-1.5
		c0.3-0.5,0.5-1,0.7-1.4c0.2-0.7,0.2-1.4,0-2c-0.2-0.6-0.7-1.2-1.4-1.7l-19.5-14.2c-0.7-0.5-1.3-0.8-2-0.8c-0.7,0-1.3,0.1-2,0.5
		c-0.6,0.4-1.2,0.7-1.6,1.2c-0.4,0.4-0.8,0.9-1.2,1.2l-2-1.5l10.7-14.7l2,1.5c-0.4,0.6-0.7,1.2-1,1.6c-0.3,0.5-0.5,0.9-0.7,1.4
		c-0.3,0.7-0.2,1.3,0,2c0.3,0.6,0.8,1.2,1.5,1.7l19.4,14.2c0.7,0.5,1.4,0.8,2,0.9c0.6,0.1,1.3-0.1,1.9-0.5c0.5-0.3,1-0.6,1.5-1.1
		c0.5-0.4,0.9-0.9,1.3-1.4L306.7,338.2z"/>
	<path class="st9" d="M347.3,289.2c0.7,3.3,0.7,6.4-0.2,9.4c-0.8,3-2.6,5.6-5.1,7.8c-2.3,1.9-4.6,3.2-7,3.9c-2.4,0.7-4.7,0.8-7,0.3
		c-2.3-0.4-4.5-1.3-6.6-2.7c-2.1-1.4-4-3.1-5.8-5.1c-1.6-1.8-2.8-3.9-3.7-6.1c-0.9-2.3-1.4-4.6-1.5-6.9c-0.1-2.3,0.3-4.5,1.2-6.7
		c0.9-2.2,2.4-4.2,4.4-5.9c2.1-1.8,4.1-2.9,6.1-3.5c2-0.6,4-0.7,5.8-0.4c1.8,0.3,3.5,1,5.2,2.1c1.7,1.1,3.2,2.5,4.7,4.2l1.6,1.9
		l-18.7,15.9c1.6,1.9,3.2,3.4,4.8,4.6c1.6,1.2,3.3,2.1,5.1,2.6c1.7,0.5,3.4,0.5,5.2,0.1c1.7-0.4,3.5-1.3,5.1-2.7
		c1.7-1.4,2.8-3.1,3.4-4.9c0.6-1.8,0.5-4.3-0.1-7.3L347.3,289.2z M331.8,283.8c-0.9-1.1-2-2.1-3.2-3.2c-1.2-1.1-2.4-1.8-3.5-2.3
		c-1.2-0.5-2.4-0.7-3.6-0.6c-1.2,0.1-2.5,0.7-3.7,1.7c-2,1.7-3,4-2.9,6.8c0.1,2.8,1.4,5.7,3.8,8.8L331.8,283.8z"/>
	<path class="st9" d="M450.5,245.5l-11.9,4.5c-1.3-1.7-2.5-3.1-3.5-4.3c-1-1.2-2.3-2.5-3.9-4c-1.9-1.8-3.8-2.9-5.4-3.4
		c-1.7-0.5-3.6-0.3-5.6,0.5l-0.8,0.3l3.7,9.7c0.3,0.8,0.7,1.4,1.2,1.8c0.5,0.4,1.2,0.6,1.9,0.6c0.6,0,1.2,0,1.8-0.1
		c0.6-0.1,1.2-0.2,1.9-0.4l0.9,2.3l-16.9,6.4l-0.9-2.3c0.5-0.3,1.1-0.5,1.6-0.8c0.6-0.3,1-0.5,1.4-0.8c0.6-0.5,0.9-1,1-1.7
		c0.1-0.6,0-1.4-0.3-2.2l-8.5-22.5c-0.3-0.8-0.7-1.4-1.2-1.8c-0.5-0.4-1.2-0.6-1.9-0.7c-0.7-0.1-1.4,0-2,0.1
		c-0.6,0.1-1.2,0.3-1.7,0.4l-0.9-2.3l16.9-6.4l0.9,2.3c-0.7,0.3-1.2,0.6-1.7,0.8c-0.5,0.3-0.9,0.5-1.3,0.8c-0.6,0.4-0.9,1-1,1.7
		s0,1.4,0.3,2.2l3.8,10.2l2.2-0.8c0.8-0.3,1.5-0.7,2.2-1.3c0.7-0.6,1.1-1.3,1.5-2c0.4-1,0.6-2.1,0.7-3.4c0.1-1.3,0.1-2.6,0.1-3.7
		c0-1.2,0-2.4,0-3.8c0.1-1.3,0.2-2.4,0.5-3.2c0.5-1.4,1.1-2.5,1.9-3.3c0.8-0.8,1.8-1.4,3-1.9c1.8-0.7,3.3-0.8,4.4-0.3
		c1.1,0.5,1.9,1.3,2.4,2.4c0.4,1,0.4,2,0,3c-0.4,1-1.1,1.7-2.2,2.1c-1.1,0.4-2,0.4-2.8,0.1c-0.8-0.3-2-0.9-3.5-1.8
		c-0.3,0.6-0.4,1.6-0.3,3c0.1,1.4,0.1,2.7,0.1,3.8c0,2.2-0.1,3.9-0.5,5.2c-0.3,1.3-0.9,2.5-1.6,3.5l0.2,0.5c2.3-0.4,4.3-0.2,6,0.4
		c1.7,0.7,3.3,1.7,4.8,3.1c0.7,0.7,1.6,1.5,2.6,2.5c1,1,1.6,1.6,1.9,1.9c0.9,0.9,1.7,1.4,2.5,1.5c0.8,0.1,1.5,0.1,2.1,0
		c0.6-0.1,1.2-0.2,1.7-0.3c0.6-0.1,1.1-0.3,1.6-0.4L450.5,245.5z"/>
	<path class="st9" d="M510.1,215c0.4,2.6,0.3,5.2-0.1,7.8c-0.5,2.6-1.3,4.9-2.6,6.9c-1.4,2.2-3.2,4-5.3,5.3
		c-2.1,1.3-4.6,2.2-7.4,2.6c-2.3,0.3-4.6,0.2-6.9-0.3c-2.2-0.6-4.3-1.6-6.2-3c-1.9-1.4-3.4-3.3-4.7-5.5c-1.3-2.3-2.2-4.9-2.6-7.8
		c-0.8-5.7,0.1-10.7,2.9-14.8c2.8-4.1,6.9-6.6,12.3-7.4c5.1-0.8,9.6,0.4,13.5,3.3C506.9,204.9,509.3,209.2,510.1,215z M502.4,216.2
		c-0.3-1.9-0.7-3.8-1.4-5.8c-0.7-2-1.5-3.7-2.5-5c-1-1.4-2.2-2.5-3.7-3.2c-1.4-0.7-3.1-1-4.9-0.7c-1.9,0.3-3.5,1-4.7,2.1
		c-1.2,1.1-2.1,2.6-2.7,4.4c-0.6,1.6-0.9,3.4-0.9,5.4c0,2,0.1,3.9,0.3,5.7c0.3,2.4,0.9,4.6,1.5,6.5c0.7,2,1.6,3.7,2.6,5.1
		c1.1,1.5,2.3,2.6,3.7,3.3c1.4,0.7,3.1,0.9,5,0.7c3.1-0.5,5.3-2.3,6.7-5.6C502.9,225.8,503.2,221.5,502.4,216.2z"/>
	<path class="st9" d="M592.1,236.5l-18.1-1.6l0.2-2.5c0.6,0,1.2,0,1.8,0s1.2,0,1.6-0.2c0.7-0.2,1.3-0.5,1.8-1.1
		c0.4-0.6,0.7-1.3,0.8-2.1l2.4-26.7l-0.9-0.1l-15.4,31.3l-2.3-0.2l-8.8-34.1l-0.8-0.1l-2.3,25.9c-0.1,1.3,0,2.3,0.3,3
		c0.3,0.8,0.8,1.3,1.4,1.6c0.5,0.3,1.1,0.5,1.7,0.7c0.6,0.2,1.2,0.3,1.9,0.4l-0.2,2.5l-14.4-1.3l0.2-2.5c0.6,0,1.2,0,1.8,0
		c0.6,0,1.2,0,1.6-0.2c0.8-0.2,1.3-0.6,1.7-1.3c0.4-0.7,0.6-1.7,0.7-3l2-22.5c0.1-1,0-1.8-0.3-2.4c-0.3-0.6-0.8-1.1-1.4-1.5
		c-0.6-0.4-1.2-0.6-1.8-0.8c-0.6-0.2-1.2-0.3-1.7-0.4l0.2-2.5l15.3,1.4l6.9,27.3l10.1-21.2c0.3-0.7,0.7-1.5,1.1-2.5
		c0.4-1,0.6-1.6,0.7-1.9l15.5,1.4l-0.2,2.5c-0.7,0-1.4,0-1.9,0c-0.5,0-1,0.1-1.5,0.1c-0.7,0.1-1.3,0.5-1.7,1
		c-0.4,0.6-0.6,1.3-0.7,2.1l-2.2,24c-0.1,0.9,0,1.6,0.3,2.2c0.3,0.6,0.7,1,1.4,1.4c0.5,0.3,1.1,0.5,1.7,0.7c0.6,0.2,1.2,0.3,1.9,0.4
		L592.1,236.5z"/>
	<path class="st9" d="M659.9,256.7l-17.1-5.9l0.8-2.3c0.6,0.1,1.1,0.3,1.7,0.4c0.6,0.1,1.1,0.2,1.6,0.2c0.7,0,1.4-0.2,1.9-0.6
		c0.5-0.4,1-1,1.3-1.9l9-26.2l-15-5.2l-8.9,25.8c-0.3,0.8-0.3,1.5-0.2,2.2c0.2,0.6,0.5,1.2,1.1,1.7c0.4,0.4,0.9,0.8,1.4,1.1
		c0.5,0.3,1.1,0.6,1.7,0.9l-0.8,2.3l-17.1-5.9l0.8-2.3c0.6,0.1,1.1,0.3,1.7,0.4c0.6,0.2,1.1,0.2,1.6,0.2c0.7,0,1.4-0.2,1.9-0.6
		c0.5-0.4,0.9-1.1,1.2-1.9l7.9-22.7c0.3-0.8,0.3-1.5,0.2-2.1c-0.1-0.6-0.5-1.2-1.1-1.7c-0.5-0.5-1.1-0.9-1.6-1.2
		c-0.5-0.3-1.1-0.6-1.5-0.8l0.8-2.3l38.8,13.4l-0.8,2.3c-0.7-0.2-1.3-0.3-1.9-0.4c-0.5-0.1-1-0.2-1.5-0.2c-0.7,0-1.3,0.2-1.9,0.6
		c-0.5,0.4-0.9,1.1-1.2,1.9l-7.9,22.7c-0.3,0.8-0.4,1.5-0.3,2.2c0.1,0.6,0.5,1.2,1,1.7c0.4,0.4,0.9,0.8,1.4,1.1
		c0.5,0.3,1.1,0.6,1.7,0.9L659.9,256.7z"/>
	<path class="st9" d="M721.3,277.7c-1,1.7-2.3,2.9-3.8,3.7c-1.5,0.8-3,1.2-4.7,1.3c-1.6,0.1-3.3-0.1-4.9-0.6
		c-1.6-0.5-3.2-1.2-4.8-2.1l-16.7-10.2l1.3-2.1c0.5,0.3,1.1,0.5,1.6,0.8c0.6,0.3,1.1,0.5,1.5,0.6c0.7,0.2,1.4,0.1,2-0.2
		c0.6-0.3,1.1-0.8,1.6-1.6l12.6-20.5c0.4-0.7,0.6-1.4,0.6-2.1c0-0.7-0.2-1.3-0.7-1.9c-0.4-0.6-0.8-1.1-1.3-1.5
		c-0.5-0.4-0.9-0.8-1.3-1.1l1.3-2.1l15.9,9.8l-1.3,2.1c-0.7-0.3-1.3-0.7-2-1c-0.6-0.3-1.2-0.5-1.7-0.7c-0.8-0.2-1.5-0.1-2,0.2
		c-0.6,0.4-1.1,0.9-1.5,1.6l-4.6,7.5c0.9,0.5,1.6,0.9,2.2,1.3c0.6,0.3,1.5,0.9,2.7,1.6c2.1,1.3,3.8,2.6,5.2,3.8
		c1.4,1.3,2.4,2.6,3.2,4c0.8,1.5,1.2,3,1.2,4.6C722.9,274.3,722.4,276,721.3,277.7z M714.9,273.6c1.1-1.8,1.4-3.7,0.9-5.8
		c-0.5-2.1-2-3.9-4.5-5.4c-1-0.6-1.9-1.1-2.7-1.5c-0.7-0.3-1.3-0.6-1.6-0.8l-6.9,11.3c-0.5,0.9-0.6,1.8-0.3,2.6
		c0.4,0.8,1.4,1.8,3.1,2.8c1.5,0.9,2.8,1.4,4.1,1.5c1.3,0.1,2.4,0,3.3-0.4c1-0.5,1.9-1,2.6-1.8C713.7,275.4,714.3,274.5,714.9,273.6
		z"/>
	<path class="st9" d="M759.4,319.6c0.1-2.3,0.7-4.6,1.7-6.9c1-2.3,2.6-4.5,4.7-6.6l-5.5-5.6l-8.1,8c-0.6,0.6-1,1.2-1.1,1.9
		c-0.1,0.6-0.1,1.3,0.2,2c0.2,0.5,0.5,1.1,0.8,1.6c0.3,0.5,0.7,1,1.1,1.5l-1.8,1.7l-12.7-12.9l1.8-1.7c0.4,0.4,0.9,0.8,1.4,1.2
		c0.5,0.4,0.9,0.7,1.3,0.9c0.7,0.3,1.3,0.4,1.9,0.3c0.6-0.2,1.3-0.6,1.9-1.2l17.1-16.9c0.6-0.6,1-1.2,1.1-1.8c0.2-0.6,0.1-1.3-0.2-2
		c-0.2-0.7-0.5-1.3-0.9-1.8c-0.4-0.5-0.7-1-1-1.4l1.8-1.7l12.7,12.9l-1.8,1.7c-0.5-0.5-1-0.9-1.5-1.2c-0.4-0.3-0.8-0.6-1.2-0.9
		c-0.6-0.4-1.3-0.4-1.9-0.3c-0.7,0.2-1.3,0.6-1.9,1.2l-6.8,6.7l5.6,5.7c3.9-3.2,8.1-4.8,12.5-4.8c4.4,0,8.4,1.8,11.9,5.3
		c2,2,3.3,4.1,4.2,6.3c0.8,2.2,1.1,4.5,1,6.7c-0.2,2.3-0.8,4.5-1.8,6.7c-1.1,2.2-2.6,4.3-4.6,6.2c-1.9,1.9-4,3.4-6.3,4.6
		c-2.3,1.2-4.6,1.9-7,2c-2.4,0.2-4.8-0.1-7.1-0.9c-2.3-0.8-4.5-2.3-6.6-4.5c-1.6-1.7-2.9-3.5-3.7-5.6
		C759.7,324,759.3,321.8,759.4,319.6z M775.4,331.9c1.7-0.6,3.4-1.4,5.1-2.6c1.7-1.2,3.4-2.6,5.1-4.3c1.5-1.4,2.8-3,3.9-4.5
		c1.2-1.6,2-3.2,2.6-4.9c0.6-1.6,0.8-3.2,0.5-4.8c-0.2-1.6-1-3-2.3-4.4c-1.4-1.4-3-2.3-4.6-2.5c-1.6-0.2-3.3-0.1-4.9,0.5
		c-1.6,0.5-3.2,1.4-4.8,2.5c-1.6,1.1-3.1,2.4-4.4,3.7c-1.7,1.6-3.1,3.3-4.3,5.1c-1.2,1.7-2.1,3.4-2.7,5.1c-0.6,1.7-0.7,3.3-0.5,4.9
		c0.2,1.5,1,3,2.4,4.3c1.2,1.2,2.6,2,4.1,2.2C772.2,332.5,773.8,332.4,775.4,331.9z"/>
	<path class="st9" d="M833.4,383l-1.2-2c0.5-0.6,1-1.3,1.6-2.1c0.6-0.9,1.1-1.8,1.6-2.6c0.5-1,0.9-1.9,1.1-2.9
		c0.3-1,0.2-1.8-0.1-2.5c-0.3-0.7-0.7-1.5-1.2-2.3c-0.5-0.8-0.9-1.5-1.2-2.1l-23.6,14.3c-0.7,0.4-1.2,1-1.5,1.5
		c-0.3,0.6-0.4,1.3-0.3,2c0.1,0.6,0.2,1.2,0.5,1.9c0.3,0.7,0.5,1.3,0.8,1.9l-2.1,1.3l-9.8-16.2l2.1-1.3c0.3,0.5,0.7,1,1.2,1.6
		c0.4,0.6,0.8,1.1,1.2,1.4c0.6,0.5,1.2,0.7,1.8,0.7c0.7,0,1.4-0.2,2.1-0.7l23.9-14.5c-0.4-0.7-0.9-1.4-1.5-2.3c-0.6-0.8-1-1.5-1.3-2
		c-0.4-0.5-1.1-0.9-2.1-1.1c-1-0.2-2.1-0.4-3.1-0.4c-1,0-2.1,0.1-3.2,0.2c-1.1,0.2-2,0.3-2.5,0.4l-1.2-2l10.2-6.2l18,29.6L833.4,383
		z"/>
	<path class="st9" d="M843.1,449.1c-3.3-0.5-6.2-1.6-8.8-3.5c-2.5-1.9-4.4-4.4-5.5-7.6c-1-2.8-1.4-5.4-1.2-7.9
		c0.2-2.5,0.9-4.7,2.1-6.7s2.8-3.7,4.8-5.2s4.3-2.7,6.8-3.6c2.3-0.8,4.6-1.3,7.1-1.3c2.4-0.1,4.8,0.3,7,1c2.2,0.7,4.1,1.9,5.9,3.5
		c1.7,1.6,3.1,3.7,4,6.1c0.9,2.5,1.3,4.9,1.2,7s-0.7,4-1.7,5.6c-0.9,1.6-2.2,2.9-3.8,4.1c-1.6,1.2-3.4,2.1-5.5,2.9l-2.3,0.8
		l-8.3-23.1c-2.3,0.8-4.3,1.8-6,2.9c-1.7,1.1-3.1,2.4-4.2,3.8c-1,1.4-1.7,3-1.9,4.8c-0.3,1.8,0,3.7,0.7,5.7c0.8,2.1,1.9,3.7,3.4,4.9
		c1.5,1.2,3.8,2,6.9,2.5L843.1,449.1z M853.6,436.5c1.3-0.5,2.7-1.1,4.1-1.9c1.4-0.8,2.5-1.6,3.4-2.4c0.9-0.9,1.5-2,1.8-3.2
		c0.3-1.2,0.2-2.5-0.3-4c-0.9-2.5-2.7-4.2-5.3-5.1c-2.6-0.9-5.8-0.8-9.5,0.4L853.6,436.5z"/>
	<path class="st9" d="M878.9,508.9c-1.5,1.7-3.4,3.1-5.6,4.2c-2.2,1.1-4.8,1.9-7.7,2.3c-2.9,0.4-5.6,0.3-8.2-0.4
		c-2.5-0.6-4.7-1.6-6.6-3c-1.9-1.4-3.5-3.1-4.7-5c-1.2-1.9-1.9-4-2.3-6.3c-0.3-2.2-0.3-4.1,0-5.5c0.3-1.5,0.7-2.7,1.3-3.7l0-0.3
		l-11.1,1.5c-0.9,0.1-1.6,0.4-2.2,0.8c-0.5,0.4-0.9,1-1.1,1.8c-0.1,0.6-0.2,1.5-0.3,2.6c-0.1,1.1-0.1,2.1,0,2.8l-2.5,0.3l-2.8-20.5
		l2.5-0.3c0.2,0.8,0.3,1.5,0.5,2.2c0.2,0.7,0.4,1.3,0.6,1.9c0.4,0.7,0.9,1.2,1.5,1.4c0.7,0.2,1.4,0.3,2.3,0.1l39.1-5.3
		c0.7-0.1,1.4-0.4,2.1-0.9c0.6-0.5,1.1-1,1.5-1.7c0.2-0.5,0.4-1.1,0.4-2c0.1-0.8,0.1-1.6,0-2.4l2.5-0.3l2.5,12.4l-0.4,0.6l-4.1,0.6
		l0,0.3c1.7,1.1,3.1,2.5,4.4,4.3c1.3,1.8,2,3.6,2.3,5.5c0.3,2.3,0.1,4.4-0.6,6.5C881.4,505.5,880.3,507.3,878.9,508.9z M851.6,506.4
		c1.7,0.8,3.6,1.3,5.7,1.5c2.1,0.2,4.4,0.1,6.9-0.2c1.8-0.3,3.7-0.7,5.5-1.4c1.9-0.7,3.4-1.5,4.7-2.5c1.3-1,2.3-2.3,3.1-3.8
		c0.7-1.5,0.9-3.2,0.7-5.1c-0.3-1.8-0.9-3.3-1.8-4.5c-1-1.2-2.1-2.2-3.3-3l-21.7,3c-0.6,0.3-1.3,0.8-1.9,1.4
		c-0.7,0.6-1.2,1.3-1.6,1.9c-0.5,0.9-0.9,1.8-1.2,2.7c-0.3,0.9-0.3,2.1-0.1,3.4c0.2,1.4,0.7,2.7,1.6,3.9
		C849,504.8,850.2,505.8,851.6,506.4z"/>
	<path class="st9" d="M842.6,600.5l2-17.9l2.5,0.3c0,0.6,0,1.2,0,1.7c0,0.6,0,1.1,0.1,1.6c0.1,0.7,0.5,1.3,1,1.7
		c0.5,0.4,1.2,0.7,2.1,0.8l23.9,2.6c0.8,0.1,1.5,0,2.1-0.3c0.6-0.3,1.1-0.8,1.5-1.4c0.4-0.6,0.6-1.2,0.8-1.8
		c0.2-0.6,0.3-1.2,0.4-1.7l2.5,0.3l-2,18.1l-2.5-0.3c0-0.7,0-1.4,0-1.9c0-0.5,0-1-0.1-1.5c-0.1-0.7-0.5-1.3-1-1.7
		c-0.5-0.4-1.3-0.6-2.1-0.7l-23.9-2.6c-0.9-0.1-1.6,0-2.2,0.2c-0.6,0.2-1,0.7-1.4,1.4c-0.3,0.5-0.6,1-0.7,1.6
		c-0.2,0.6-0.3,1.2-0.5,1.9L842.6,600.5z M856,582.8c-2-0.2-3.6-0.8-5-1.8c-1.3-1-2.4-2.2-3.2-3.7c-0.7-1.4-1.3-3-1.5-4.7
		c-0.3-1.7-0.3-3.4-0.1-5.2l2.1-19.4l2.5,0.3c0,0.6,0,1.2,0,1.8c0,0.6,0,1.2,0.1,1.6c0.1,0.7,0.5,1.3,1,1.7c0.5,0.4,1.2,0.6,2.1,0.7
		l23.9,2.6c0.8,0.1,1.5,0,2.1-0.3c0.6-0.3,1.1-0.8,1.5-1.4c0.4-0.6,0.6-1.2,0.8-1.8c0.2-0.6,0.3-1.2,0.4-1.7l2.5,0.3l-2,18.6
		l-2.5-0.3c0-0.8,0.1-1.5,0.1-2.2c0-0.7,0-1.3-0.1-1.8c-0.1-0.8-0.5-1.4-1.1-1.7c-0.6-0.4-1.3-0.6-2-0.7l-8.8-1
		c-0.1,1-0.1,1.9-0.2,2.6c0,0.7-0.1,1.7-0.3,3.1c-0.3,2.4-0.7,4.5-1.3,6.3c-0.6,1.8-1.4,3.3-2.3,4.6c-1,1.4-2.2,2.4-3.6,3
		C859.7,582.8,858,583,856,582.8z M857,575.3c2.1,0.2,4-0.3,5.6-1.7c1.6-1.4,2.6-3.5,3-6.4c0.1-1.2,0.2-2.2,0.2-3
		c0-0.8,0-1.4,0.1-1.8l-13.2-1.4c-1-0.1-1.9,0.2-2.5,0.9c-0.6,0.7-1,2-1.2,4c-0.2,1.7-0.1,3.1,0.4,4.3c0.4,1.2,1,2.1,1.8,2.8
		c0.8,0.7,1.8,1.3,2.7,1.6C854.8,574.9,855.9,575.1,857,575.3z"/>
	<path class="st9" d="M810.4,660.8c1.1,0.6,1.9,1.4,2.2,2.3c0.4,1,0.3,1.9-0.1,2.8c-0.4,0.7-0.8,1.3-1.4,1.6
		c-0.5,0.4-1.1,0.6-1.7,0.8c-0.5,0.2-1.1,0.3-1.9,0.4c-0.8,0.1-1.4,0.1-1.9,0.2c0,1.4,0.9,3.6,2.6,6.4c1.7,2.9,3.4,5.1,4.9,6.8
		c6.4,0.6,12.1,1.2,17.1,1.7c5,0.5,10.3,0.9,15.7,1.4c1.2,0.1,2.4-0.2,3.5-0.9c1.1-0.7,2-1.5,2.7-2.4l2.2,1.2l-7.8,15l-2.3-1.2
		c0.3-0.7,0.6-1.5,0.8-2.6c0.2-1.1,0.2-1.7-0.2-1.9c-0.1-0.1-0.4-0.1-0.7-0.2c-0.4-0.1-0.7-0.1-1.1-0.2c-2.6-0.3-6.5-0.7-11.5-1.1
		c-5-0.4-9.1-0.8-12-1.2c1.9,2.2,3.8,4.6,5.7,7c2,2.4,4.3,5.2,7.1,8.3c0.3,0.4,0.8,0.9,1.4,1.6c0.6,0.7,1.2,1.2,1.7,1.4
		c0.6,0.3,1.4,0.1,2.4-0.7c1-0.7,1.8-1.5,2.4-2.4l2.1,1.1l-6.4,12.2l-2.1-1.1c0.2-0.7,0.3-1.8,0.2-3.2c-0.1-1.4-0.6-2.7-1.5-3.9
		c-4.7-5.9-9.1-11.1-13.1-15.8c-4-4.7-6.9-8.2-8.7-10.5c-2.4-3-4.1-5.5-5.3-7.6c-1.2-2-2-3.8-2.4-5.4c-0.4-1.5-0.5-2.8-0.4-3.8
		c0.1-1,0.4-1.9,0.9-2.8c0.9-1.7,2-2.9,3.4-3.4C808.1,660.2,809.3,660.2,810.4,660.8z"/>
	<path class="st9" d="M730.3,782.8l13.5-12.1l1.7,1.8c-0.4,0.4-0.8,0.9-1.2,1.3c-0.4,0.4-0.8,0.9-1,1.3c-0.4,0.6-0.5,1.3-0.4,2
		c0.1,0.7,0.4,1.3,1.1,2l7.9,8.8l12.3-11l-7.6-8.5c-0.6-0.6-1.2-1-1.8-1.2c-0.6-0.2-1.3-0.1-2,0.1c-0.6,0.2-1.1,0.4-1.6,0.7
		c-0.5,0.3-1.1,0.7-1.6,1.1l-1.7-1.8l13.5-12.1l1.7,1.8c-0.4,0.4-0.8,0.9-1.2,1.3c-0.4,0.4-0.8,0.9-1,1.3c-0.4,0.6-0.5,1.3-0.4,1.9
		c0.1,0.6,0.5,1.3,1.1,2l16.1,17.9c0.6,0.6,1.1,1,1.8,1.2c0.6,0.2,1.3,0.2,2-0.1c0.7-0.2,1.3-0.5,1.8-0.8c0.5-0.3,1-0.7,1.4-1
		l1.7,1.8l-13.5,12.1l-1.7-1.8c0.5-0.5,0.9-1,1.3-1.4c0.4-0.4,0.7-0.8,0.9-1.2c0.4-0.6,0.5-1.3,0.4-1.9c-0.1-0.7-0.5-1.3-1.1-2
		l-6.4-7.1l-12.3,11l6.1,6.8c0.6,0.6,1.1,1,1.8,1.2c0.6,0.2,1.3,0.2,2-0.1c0.7-0.2,1.3-0.5,1.8-0.8c0.5-0.3,1-0.7,1.4-1l1.7,1.8
		l-13.5,12.1l-1.7-1.8c0.5-0.5,0.9-1,1.3-1.4c0.4-0.4,0.7-0.8,0.9-1.2c0.4-0.6,0.5-1.3,0.4-1.9c-0.1-0.7-0.5-1.3-1.1-2L739,784.1
		c-0.6-0.7-1.2-1.1-1.8-1.3c-0.6-0.2-1.2-0.2-2,0.1c-0.6,0.2-1.1,0.4-1.6,0.7c-0.5,0.3-1.1,0.7-1.6,1.1L730.3,782.8z"/>
	<path class="st9" d="M675.9,817.8c0.8-1,1.5-1.8,2.2-2.4c0.6-0.7,1.5-1.3,2.4-1.8c1.7-1,3.3-1.3,4.7-1.1c1.5,0.2,2.8,1,3.9,2.4
		l0.2-0.1c0.5-2.4,1.4-4.4,2.5-6.2c1.2-1.8,2.9-3.3,5.2-4.6c2.4-1.4,4.8-1.8,7.2-1.2c2.4,0.6,4.3,2.1,5.6,4.5
		c0.7,1.2,1.2,2.5,1.4,3.6c0.2,1.2,0.2,2.4-0.1,3.5c-0.2,1-0.6,2-1.2,3c-0.6,1-1.2,1.9-1.8,2.7c-0.8,0.9-2.4,2.7-4.8,5.5
		c-2.4,2.7-4,4.6-4.7,5.8l1.8,3.2c0.2,0.3,0.5,0.8,1.1,1.5c0.6,0.7,1.3,1.4,2.1,1.8c0.9,0.6,1.9,0.9,3,1.1c1.1,0.1,2.4-0.2,3.9-1
		c1-0.6,1.8-1.3,2.5-2.1s1.1-1.5,1.2-2.1c-0.2-0.4-0.7-1-1.4-1.8c-0.7-0.7-1.2-1.5-1.6-2.2c-0.4-0.8-0.5-1.7-0.2-2.7
		s1.1-1.9,2.3-2.6c1.1-0.6,2.1-0.7,3.1-0.2c1,0.5,1.7,1.2,2.2,2.2c0.6,1,0.8,2.2,0.6,3.5c-0.2,1.3-0.6,2.7-1.4,4
		c-0.6,1.2-1.5,2.4-2.7,3.6c-1.2,1.2-2.4,2.2-3.7,3c-1.8,1-3.5,1.8-5,2.3c-1.5,0.5-3,0.7-4.6,0.5c-1.6-0.2-3-0.8-4.4-1.8
		c-1.4-1.1-2.7-2.7-3.9-4.8c-1.8-3.1-3.3-5.9-4.6-8.3c-1.3-2.4-2.8-5.1-4.4-7.9c-0.5-0.8-1-1.4-1.6-1.8c-0.6-0.3-1.3-0.5-2.1-0.5
		c-0.4,0-1,0.2-1.7,0.6c-0.7,0.4-1.5,0.8-2.2,1.2L675.9,817.8z M697.1,828.5c1.5-1.6,2.9-3.1,4-4.4c1.1-1.3,2-2.7,2.8-4.2
		c0.7-1.4,1-2.7,1.1-4.1c0.1-1.4-0.3-2.8-1.1-4.2c-1-1.8-2.3-2.9-3.7-3.2c-1.4-0.3-2.9-0.1-4.3,0.8c-1.5,0.9-2.7,2-3.4,3.5
		c-0.7,1.4-1.2,2.9-1.5,4.4L697.1,828.5z"/>
	<path class="st9" d="M633.4,832.6c5.1-1.7,9.6-1.3,13.6,1.1c4,2.4,6.9,6.5,8.8,12.2c0.8,2.5,1.2,4.9,1.1,7.3
		c-0.1,2.4-0.5,4.7-1.4,7c-0.8,2.2-2.2,4.1-3.9,5.8c-1.8,1.7-3.9,3-6.4,3.8c-3.5,1.1-6.5,1.2-9.2,0.3c-2.7-0.9-4.5-2.8-5.5-5.7
		c-0.4-1.2-0.5-2.3-0.2-3.4c0.3-1.1,1.1-1.9,2.4-2.3c1.4-0.5,2.6-0.5,3.6,0c1,0.5,1.7,1.1,1.9,2c0.4,1.1,0.6,2.2,0.7,3.4
		c0.1,1.2,0.2,2.1,0.3,2.6c0.7,0.6,1.5,0.9,2.4,0.8c0.9,0,1.9-0.2,2.8-0.5c1.1-0.4,2.1-1,3-1.8c0.9-0.8,1.6-2.1,2.1-3.7
		c0.5-1.5,0.7-3.3,0.6-5.5c-0.1-2.2-0.6-4.7-1.6-7.5c-1.5-4.4-3.6-7.7-6.5-9.9c-2.9-2.2-5.9-2.7-9.1-1.7c-2.3,0.8-4.1,2-5.2,3.6
		c-1.2,1.6-2.1,3.8-2.7,6.5l-2.8-0.7c0.6-3.3,2-6.2,4-8.7C628.3,835.2,630.6,833.5,633.4,832.6z"/>
</g>
<path id="SVGID_x5F_1_x5F_" class="st10" d="M392.1,291.3c137.6-81.4,315.2-35.9,396.6,101.7s35.9,315.2-101.7,396.6
	s-315.2,35.9-396.6-101.7S254.5,372.8,392.1,291.3z"/>
<text class="st1"><textPath  xlink:href="#SVGID_x5F_1_x5F_" startOffset="87.1677%"  style="display:inline;">
<tspan  class="st0" style="font-family:'MyriadPro-Regular'; font-size:77px; letter-spacing:300;">Правильные компьютеры у нас</tspan></textPath>
</text>
<g>
	<path class="st0" d="M538.5,264c37.5,0,73.8,7.3,108,21.8c33,14,62.7,34,88.2,59.5c25.5,25.5,45.5,55.2,59.5,88.2
		c14.5,34.2,21.8,70.6,21.8,108s-7.3,73.8-21.8,108c-14,33-34,62.7-59.5,88.2s-55.2,45.5-88.2,59.5c-34.2,14.5-70.6,21.8-108,21.8
		s-73.8-7.3-108-21.8c-33-14-62.7-34-88.2-59.5c-25.5-25.5-45.5-55.2-59.5-88.2c-14.5-34.2-21.8-70.6-21.8-108s7.3-73.8,21.8-108
		c14-33,34-62.7,59.5-88.2c25.5-25.5,55.2-45.5,88.2-59.5C464.7,271.3,501,264,538.5,264 M538.5,262C384.1,262,259,387.1,259,541.5
		S384.1,821,538.5,821S818,695.9,818,541.5S692.9,262,538.5,262L538.5,262z"/>
</g>
</svg>
